#!OML:ASF I:\Actors\actors\Patient Classification 2\Patient 1\Session 1\actor1.ASF
:FULLY-SPECIFIED
:DEGREES

303
root -0.560241 18.0486 6.02478 1.79284 -29.879 -1.6201
lowerback 3.9846 -8.4376 -1.80118
upperback -4.72457 -11.3016 2.89587
thorax -6.21177 -5.44934 4.97525
lowerneck -10.6025 4.15466 10.9892
upperneck 32.6194 1.3353 3.94062
head 12.8466 2.20688 -0.229259
rclavicle 9.12422e-014 3.18055e-015
rhumerus 33.8743 37.5273 5.8428
rradius 143.474
rwrist -92.8129
rhand -4.95332 -55.4976
rfingers 7.12502
rthumb 20.8383 -84.3986
lclavicle 9.12422e-014 3.18055e-015
lhumerus 15.7027 27.8595 82.7014
lradius 72.6821
lwrist 84.9446
lhand -40.7936 -1.31687
lfingers 7.12502
lthumb -13.7327 28.21
rfemur 11.2577 15.97 13.6132
rtibia -20.1782
rfoot 3.23521 -6.67172
rtoes 1.98459
lfemur 15.8338 16.9295 -13.1341
ltibia 3.18055e-015
lfoot -18.7614 14.8511
ltoes 3.93017
304
root -0.580754 18.0426 6.02949 1.6584 -29.7249 -1.67003
lowerback 3.81953 -8.52164 -1.97375
upperback -4.70348 -11.4271 2.84262
thorax -6.06256 -5.5112 4.98524
lowerneck -10.4785 3.98274 10.8186
upperneck 32.1009 1.0653 4.32315
head 12.5892 2.09284 -0.102962
rclavicle 1.4884e-013 -4.37326e-015
rhumerus 33.4613 38.1685 4.99177
rradius 142.527
rwrist -92.7478
rhand -4.79504 -55.383
rfingers 7.12502
rthumb 20.9903 -84.2671
lclavicle 1.4884e-013 -4.37326e-015
lhumerus 16.2101 28.31 83.1103
lradius 72.052
lwrist 84.3419
lhand -40.5595 -1.50847
lfingers 7.12502
lthumb -13.507 28.0335
rfemur 11.4612 15.9393 13.761
rtibia -20.0952
rfoot 3.08473 -6.6383
rtoes 2.56941
lfemur 16.0211 16.7592 -12.9981
ltibia 9.54166e-015
lfoot -18.9127 14.8684
ltoes 4.32274
305
root -0.598498 18.0343 6.02877 1.69552 -29.7313 -1.78772
lowerback 3.50312 -8.56804 -2.19319
upperback -4.61901 -11.4988 2.84787
thorax -5.7437 -5.55131 5.03989
lowerneck -10.4748 3.83476 10.9169
upperneck 31.5331 0.851244 4.423
head 12.3491 2.00021 -0.120652
rclavicle -1.6678e-013 -1.47101e-014
rhumerus 33.8697 38.6162 4.36704
rradius 141.845
rwrist -93.8155
rhand -2.76986 -57.4962
rfingers 7.12502
rthumb 22.9348 -86.1521
lclavicle -1.6678e-013 -1.47101e-014
lhumerus 16.9823 28.5996 83.495
lradius 71.1292
lwrist 83.7573
lhand -40.23 -1.44865
lfingers 7.12502
lthumb -13.1895 28.1141
rfemur 11.4761 16.0631 13.9317
rtibia -20.0531
rfoot 2.98105 -6.62199
rtoes 3.24979
lfemur 16.0671 16.7643 -12.8366
ltibia 6.36111e-015
lfoot -19.0852 14.8723
ltoes 5.13508
306
root -0.610154 18.0292 6.02901 1.86893 -29.872 -1.92315
lowerback 3.07287 -8.56641 -2.41909
upperback -4.52799 -11.4989 2.94976
thorax -5.33953 -5.55848 5.17061
lowerneck -10.4825 3.78723 10.9055
upperneck 31.0391 0.779506 4.5996
head 12.1469 1.97049 -0.0693379
rclavicle 7.45443e-015 3.57812e-015
rhumerus 34.8521 39.811 4.55651
rradius 141.546
rwrist -92.8178
rhand -2.11407 -56.0237
rfingers 7.12502
rthumb 23.564 -84.6001
lclavicle 7.45443e-015 3.57812e-015
lhumerus 17.8997 28.7211 83.7978
lradius 69.8626
lwrist 83.3572
lhand -40.1125 -0.949322
lfingers 7.12502
lthumb -13.0763 28.6208
rfemur 11.3146 16.0818 14.0636
rtibia -20.0062
rfoot 3.02351 -6.39954
rtoes 2.92684
lfemur 15.994 16.9231 -12.711
ltibia -6.36111e-015
lfoot -19.1812 14.9247
ltoes 5.29212
307
root -0.616288 18.0278 6.03172 2.03688 -30.1341 -2.05121
lowerback 2.69278 -8.49134 -2.59979
upperback -4.44358 -11.3955 3.10942
thorax -4.97897 -5.51373 5.3434
lowerneck -10.5044 3.75209 10.7681
upperneck 30.7158 0.765559 4.69502
head 12.0152 1.94944 -0.0174755
rclavicle 1.963e-014 -8.34896e-015
rhumerus 36.1666 40.6575 4.66894
rradius 141.414
rwrist -92.5416
rhand -1.87985 -56.5144
rfingers 7.12502
rthumb 23.7886 -85.0617
lclavicle 1.963e-014 -8.34896e-015
lhumerus 18.7138 28.8363 84.2783
lradius 68.7025
lwrist 83.1529
lhand -39.8576 0.429365
lfingers 7.12502
lthumb -12.8306 30.015
rfemur 11.1106 15.9778 14.1663
rtibia -19.9267
rfoot 3.22452 -5.96954
rtoes 1.92136
lfemur 15.9638 17.2037 -12.5962
ltibia -5.725e-014
lfoot -19.2556 14.9597
ltoes 5.1703
308
root -0.619635 18.0267 6.03362 2.16107 -30.4549 -2.25482
lowerback 2.46749 -8.38158 -2.63617
upperback -4.36816 -11.2408 3.25873
thorax -4.75135 -5.44366 5.46028
lowerneck -10.4565 3.75103 10.7114
upperneck 30.5799 0.803024 4.68795
head 11.949 1.95389 -0.00876851
rclavicle 7.80727e-014 0
rhumerus 37.4064 41.4667 4.80718
rradius 141.323
rwrist -92.4196
rhand -2.06096 -56.7836
rfingers 7.12502
rthumb 23.6149 -85.3534
lclavicle 7.80727e-014 0
lhumerus 19.2351 29.0254 84.8415
lradius 67.9107
lwrist 82.9673
lhand -40.0879 -0.390269
lfingers 7.12502
lthumb -13.0526 29.1813
rfemur 10.9609 15.902 14.3509
rtibia -19.8184
rfoot 3.43025 -5.58216
rtoes 1.6551
lfemur 16.05 17.529 -12.372
ltibia -2.54444e-014
lfoot -19.3423 14.9124
ltoes 5.37976
309
root -0.621605 18.0266 6.03329 2.26528 -30.7199 -2.51513
lowerback 2.35852 -8.26993 -2.51275
upperback -4.29781 -11.0808 3.31176
thorax -4.64462 -5.37285 5.41894
lowerneck -10.3737 3.73149 10.7681
upperneck 30.6349 0.74545 4.7449
head 11.9555 1.94102 -0.0049884
rclavicle -3.8763e-014 -3.97569e-015
rhumerus 37.8596 42.2705 4.66001
rradius 141.184
rwrist -92.2624
rhand -1.94913 -56.8876
rfingers 7.12502
rthumb 23.7222 -85.4436
lclavicle -3.8763e-014 -3.97569e-015
lhumerus 19.6148 29.1396 85.3296
lradius 67.3214
lwrist 82.5507
lhand -39.9899 -0.855823
lfingers 7.12502
lthumb -12.958 28.7218
rfemur 10.8592 15.7343 14.6015
rtibia -19.7089
rfoot 3.65739 -5.22852
rtoes 1.72168
lfemur 16.1711 17.792 -12.0756
ltibia 1.59028e-014
lfoot -19.3696 14.8362
ltoes 5.44465
310
root -0.62425 18.0266 6.03001 2.32903 -30.9151 -2.72056
lowerback 2.34079 -8.16547 -2.42015
upperback -4.23459 -10.9362 3.2883
thorax -4.60417 -5.30648 5.33312
lowerneck -10.3042 3.68438 10.9493
upperneck 30.8202 0.577489 4.864
head 12.0202 1.90403 -0.0107398
rclavicle 1.30701e-014 -4.85035e-014
rhumerus 37.761 42.9794 4.31579
rradius 141.03
rwrist -92.0211
rhand -1.47169 -56.9491
rfingers 7.12502
rthumb 24.18 -85.445
lclavicle 1.30701e-014 -4.85035e-014
lhumerus 19.9563 29.0649 85.6541
lradius 66.8156
lwrist 82.236
lhand -39.9953 -1.41135
lfingers 7.12502
lthumb -12.9632 28.1659
rfemur 10.7949 15.5347 14.815
rtibia -19.6319
rfoot 3.88756 -4.93361
rtoes 1.67686
lfemur 16.2732 17.9823 -11.8228
ltibia -1.27222e-014
lfoot -19.3218 14.7496
ltoes 5.59089
311
root -0.628947 18.025 6.02333 2.30855 -31.1103 -2.79005
lowerback 2.37871 -8.08355 -2.51636
upperback -4.1652 -10.8327 3.25153
thorax -4.55261 -5.2542 5.34165
lowerneck -10.0685 3.68024 11.2366
upperneck 30.9474 0.481619 4.96105
head 12.0328 1.90327 -0.035971
rclavicle -3.33461e-014 -1.07344e-014
rhumerus 37.607 43.4557 3.99327
rradius 140.9
rwrist -91.8071
rhand -0.871282 -56.982
rfingers 7.12502
rthumb 24.7556 -85.4
lclavicle -3.33461e-014 -1.07344e-014
lhumerus 20.2345 29.0118 85.8988
lradius 66.5105
lwrist 82.3512
lhand -40.6368 -2.15874
lfingers 7.12502
lthumb -13.5816 27.3783
rfemur 10.7817 15.485 14.9145
rtibia -19.6004
rfoot 4.01394 -4.79071
rtoes 1.82722
lfemur 16.3738 18.1667 -11.6863
ltibia -9.54166e-015
lfoot -19.2652 14.6565
ltoes 5.88967
